<svg xmlns="http://www.w3.org/2000/svg" width="211.5" height="170.496" viewBox="0 0 211.5 170.496">
  <g id="Group_73701" data-name="Group 73701" transform="translate(-1164.582 -4.504)">
    <g id="Group_20433" data-name="Group 20433" transform="translate(3792.582 7470.393)" opacity="0.23">
      <g id="Polygon_3" data-name="Polygon 3" transform="translate(-2628 -7444.342)">
        <path id="Path_30040" data-name="Path 30040" d="M52.012,0l52.012,89.954H0Z" transform="translate(89.954 0) rotate(90)" fill="none"/>
        <path id="Path_30041" data-name="Path 30041" d="M52.012,1.7,1.478,89.1H102.545L52.012,1.7m0-1.7,52.012,89.954H0Z" transform="translate(89.954 0) rotate(90)" fill="#6459a7"/>
      </g>
      <g id="Polygon_4" data-name="Polygon 4" transform="translate(-2543.81 -7360.284)">
        <path id="Path_30042" data-name="Path 30042" d="M25.979,0,51.959,44.932H0Z" transform="translate(67.464 38.912) rotate(150)" fill="none"/>
        <path id="Path_30043" data-name="Path 30043" d="M25.979,1.7,1.478,44.079h49L25.979,1.7m0-1.7,25.98,44.932H0Z" transform="translate(67.464 38.912) rotate(150)" fill="#6459a7"/>
      </g>
      <g id="Polygon_5" data-name="Polygon 5" transform="translate(-2454.543 -7387.735)">
        <path id="Path_30044" data-name="Path 30044" d="M14.469,0,28.938,24.894H0Z" transform="translate(38.044 20.14) rotate(144)" fill="none"/>
        <path id="Path_30045" data-name="Path 30045" d="M14.469,1.7,1.482,24.042H27.455L14.469,1.7m0-1.7L28.938,24.894H0Z" transform="translate(38.044 20.14) rotate(144)" fill="#6459a7"/>
      </g>
      <g id="Polygon_6" data-name="Polygon 6" transform="translate(-2536.508 -7465.889)">
        <path id="Path_30046" data-name="Path 30046" d="M21.529,0,43.059,37.041H0Z" transform="translate(37.29 53.608) rotate(-150)" fill="none"/>
        <path id="Path_30047" data-name="Path 30047" d="M21.529,1.7,1.482,36.189H41.575L21.529,1.7m0-1.7L43.057,37.041H0Z" transform="translate(37.29 53.608) rotate(-150)" fill="#6459a7"/>
      </g>
    </g>
  </g>
</svg>
